<svg width="112" height="112" viewBox="0 0 112 112" fill="none" xmlns="http://www.w3.org/2000/svg">
<path fill-rule="evenodd" clip-rule="evenodd" d="M99.1808 78.1424C102.592 71.504 104.517 63.9768 104.517 56C104.517 29.205 82.795 7.4833 56 7.4833C29.205 7.4833 7.4833 29.205 7.4833 56C7.4833 82.795 29.205 104.517 56 104.517C63.9768 104.517 71.504 102.592 78.1424 99.1808C77.7734 97.7786 77.5768 96.3064 77.5768 94.7884C77.5768 85.2827 85.2827 77.5768 94.7884 77.5768C96.3064 77.5768 97.7786 77.7734 99.1808 78.1424ZM105.828 81.5831C109.773 73.9146 112 65.2174 112 56C112 25.0721 86.9279 0 56 0C25.0721 0 0 25.0721 0 56C0 86.9279 25.0721 112 56 112C65.2174 112 73.9146 109.773 81.5831 105.828C84.7403 109.601 89.4842 112 94.7884 112C104.294 112 112 104.294 112 94.7884C112 89.4842 109.601 84.7403 105.828 81.5831ZM66.3876 77.6035C72.0642 77.6109 77.5112 75.3551 81.5303 71.3323C82.3608 70.4892 83.1223 69.5803 83.8076 68.6146L88.5523 72.1424C86.0344 75.676 82.7125 78.5557 78.8627 80.5421C75.0128 82.5285 70.7461 83.5643 66.4172 83.5635C52.3379 83.5635 40.7586 72.8349 39.299 59.0633H28.9385V79.513L23.4477 83.5635V28.686H46.5281L41.8407 35.2399H28.9385V53.1901H39.299C40.7586 39.4158 52.3379 28.686 66.4172 28.686C70.7458 28.6867 75.0119 29.7233 78.8613 31.7098C82.7107 33.6964 86.0325 36.5755 88.551 40.1083L83.8063 43.6296C83.1212 42.6662 82.3601 41.7595 81.5303 40.9184C79.5478 38.9222 77.1921 37.3383 74.5983 36.2576C72.0046 35.1769 69.2237 34.6206 66.4152 34.6206C63.6068 34.6206 60.8259 35.1769 58.2321 36.2576C55.6384 37.3383 53.2827 38.9222 51.3002 40.9184C47.2811 44.9412 45.019 50.4013 45.0117 56.0977C45.0044 61.794 47.2524 67.26 51.2611 71.2931C55.2699 75.3263 60.711 77.5962 66.3876 77.6035ZM70.9736 47.4165C69.5695 46.671 68.0057 46.2794 66.4172 46.2755C64.7319 46.2762 63.0753 46.7132 61.6076 47.5444C60.1398 48.3756 58.9107 49.5727 58.0389 51.0201C57.1672 52.4674 56.6824 54.116 56.6314 55.8064C56.5804 57.4968 56.9649 59.1718 57.7478 60.6695C58.5307 62.1671 59.6855 63.4366 61.1004 64.3554C62.5153 65.2741 64.1426 65.8109 65.8247 65.9139C67.5069 66.0168 69.1871 65.6825 70.7028 64.9432C72.2185 64.2038 73.5185 63.0845 74.477 61.6935L79.2269 65.2213C77.7835 67.2856 75.8658 68.9707 73.6361 70.134C71.4063 71.2974 68.9303 71.9047 66.4172 71.9046C57.7519 71.902 50.7312 64.8424 50.7312 56.1247C50.7312 47.407 57.7519 40.3422 66.4172 40.3422C68.9302 40.343 71.4062 40.9508 73.6358 42.1142C75.8654 43.2777 77.7831 44.9627 79.2269 47.0268L74.477 50.5547C73.5801 49.239 72.3777 48.1619 70.9736 47.4165ZM94.7884 107.261C101.677 107.261 107.261 101.677 107.261 94.7884C107.261 87.9002 101.677 82.3163 94.7884 82.3163C87.9002 82.3163 82.3163 87.9002 82.3163 94.7884C82.3163 101.677 87.9002 107.261 94.7884 107.261Z" fill="url(#paint0_linear_3_145)"/>
<path fill-rule="evenodd" clip-rule="evenodd" d="M87.0547 96.5194L94.0601 101.773L102.52 90.022L99.1938 87.804L93.1769 96.1616L89.5474 93.44L87.0547 96.5194ZM101.619 90.1832L99.3536 88.6724L99.3535 88.6725L101.619 90.1832L101.619 90.1832ZM89.6576 94.3156L89.6576 94.3156L93.3159 97.0589L93.3159 97.0589L89.6576 94.3156Z" fill="url(#paint1_linear_3_145)"/>
<defs>
<linearGradient id="paint0_linear_3_145" x1="32.4423" y1="-6.34216" x2="63.8057" y2="78.6209" gradientUnits="userSpaceOnUse">
<stop stop-color="#459CD6"/>
<stop offset="0.2127" stop-color="#4898D3"/>
<stop offset="0.4331" stop-color="#528BCA"/>
<stop offset="0.6571" stop-color="#6377BC"/>
<stop offset="0.882" stop-color="#7B5AA8"/>
<stop offset="1" stop-color="#89489C"/>
</linearGradient>
<linearGradient id="paint1_linear_3_145" x1="94.7874" y1="87.804" x2="94.7874" y2="101.773" gradientUnits="userSpaceOnUse">
<stop offset="0.232292" stop-color="#2FF38A"/>
<stop offset="1" stop-color="#07C961"/>
</linearGradient>
</defs>
</svg>
